<?xml version="1.0" standalone="no"?>
<!DOCTYPE svg PUBLIC "-//W3C//DTD SVG 20010904//EN"
 "http://www.w3.org/TR/2001/REC-SVG-20010904/DTD/svg10.dtd">
<svg version="1.0" xmlns="http://www.w3.org/2000/svg"
 width="66.000000pt" height="72.000000pt" viewBox="0 0 66.000000 72.000000"
 preserveAspectRatio="xMidYMid meet">
<metadata>
Created by potrace 1.10, written by Peter Selinger 2001-2011
</metadata>
<g transform="translate(0.000000,72.000000) scale(0.100000,-0.100000)"
fill="#000000" stroke="none">
<path d="M444 602 c-34 -31 -74 -75 -88 -96 -29 -43 -34 -97 -12 -115 23 -19
81 -24 109 -10 47 26 177 143 177 161 0 18 -25 25 -32 10 -6 -17 -131 -122
-144 -122 -29 0 -11 27 61 90 41 36 74 71 75 78 1 29 -39 7 -102 -55 -55 -54
-70 -65 -80 -55 -11 11 1 27 59 84 67 65 81 89 50 88 -7 -1 -40 -27 -73 -58z
m-36 -165 c3 -28 -4 -33 -27 -18 -8 5 -11 16 -6 30 9 29 29 21 33 -12z"/>
<path d="M17 633 c-4 -3 -7 -32 -7 -64 0 -63 7 -75 99 -172 107 -113 191 -148
221 -92 7 14 17 25 22 25 11 0 10 -7 -6 -39 -15 -28 -15 -28 94 -136 l109
-109 26 24 c14 13 25 29 25 35 0 6 -51 59 -112 118 -142 135 -143 136 -263
256 -143 143 -187 175 -208 154z m158 -152 c55 -53 108 -108 118 -123 17 -26
17 -27 0 -36 -29 -15 -55 1 -145 90 -83 81 -118 132 -118 170 0 16 3 17 23 7
12 -7 67 -55 122 -108z"/>
<path d="M109 193 c-49 -47 -88 -91 -86 -97 2 -5 15 -19 30 -30 l27 -20 90 89
c50 49 90 95 90 101 0 11 -42 44 -55 44 -3 0 -46 -39 -96 -87z"/>
</g>
</svg>
