<svg xmlns="http://www.w3.org/2000/svg" xmlns:xlink="http://www.w3.org/1999/xlink" preserveAspectRatio="xMidYMid meet" version="1.0" viewBox="168.7 281.9 665.9 432.5" zoomAndPan="magnify" style="fill: rgb(245, 195, 43);" original_string_length="8075" width="138.05621200059775px" height="89.7572669613496px"><g><g id="__id0_sk0b0qmdxd"><path d="M796.36,306.26H238.43c-1.93,0-3.49-1.56-3.49-3.49v-0.07c0-1.93,1.56-3.49,3.49-3.49c49.81,0.12,489.16,1.18,557.21-13.54 c2.17-0.47,4.21,1.19,4.21,3.41v13.69C799.84,304.7,798.28,306.26,796.36,306.26z" style="fill: inherit;"/></g><g id="__id1_sk0b0qmdxd"><path d="M810.63,319.33v330.2c0,1.92,1.56,3.49,3.49,3.49h0.07c1.93,0,3.49-1.56,3.49-3.49c-0.12-49.81-1.18-261.44,13.54-329.48 c0.47-2.17-1.19-4.21-3.41-4.21h-13.69C812.19,315.85,810.63,317.41,810.63,319.33z" style="fill: inherit;"/></g><g id="__id2_sk0b0qmdxd"><path d="M817.97,306.14c-4.06,0-7.34-3.29-7.34-7.34c0-4.06,3.29-7.34,7.34-7.34c4.06,0,7.34,3.29,7.34,7.34 C825.32,302.85,822.03,306.14,817.97,306.14z" style="fill: inherit;"/></g><g id="__id3_sk0b0qmdxd"><path d="M809.39,313.49c0.01,3.5-2.81,6.35-6.31,6.36l0,0c-3.5,0.01-6.35-2.81-6.36-6.31l0,0c-0.01-3.5,2.81-6.35,6.31-6.36l0,0 C806.53,307.17,809.38,309.99,809.39,313.49L809.39,313.49z" style="fill: inherit;"/></g><g id="__id4_sk0b0qmdxd"><path d="M802.97,669.52c-31.33,39.15-0.18,44.88-0.18,44.88C834.62,706.42,802.97,669.52,802.97,669.52z M801.48,703.9 c0-0.83,0.67-1.49,1.5-1.49c0.82,0,1.49,0.67,1.49,1.5c0,0.82-0.67,1.49-1.5,1.49C802.14,705.4,801.48,704.73,801.48,703.9z M802.95,699.71c-9.29-17.96,0.08-20.49,0.08-20.49C812.57,682.96,802.95,699.71,802.95,699.71z" style="fill: inherit;"/></g><g id="__id5_sk0b0qmdxd"><path d="M807.25,666.62c0.01-2.28-1.83-4.13-4.11-4.14l0,0c-2.28-0.01-4.13,1.83-4.14,4.11l0,0c-0.01,2.28,1.83,4.13,4.11,4.14l0,0 C805.38,670.74,807.24,668.9,807.25,666.62L807.25,666.62z" style="fill: inherit;"/></g><g id="__id6_sk0b0qmdxd"><path d="M801.01 313.52H805.49V662.48H801.01z" style="fill: inherit;"/></g><g id="__id7_sk0b0qmdxd"><path d="M213.59,313.24c-39.15-31.33-44.88-0.18-44.88-0.18C176.68,344.88,213.59,313.24,213.59,313.24z M179.21,311.74 c0.83,0,1.49,0.67,1.49,1.5c0,0.82-0.67,1.49-1.5,1.49c-0.82,0-1.49-0.67-1.49-1.5C177.71,312.41,178.38,311.74,179.21,311.74z M183.4,313.21c17.96-9.29,20.49,0.08,20.49,0.08C200.15,322.83,183.4,313.21,183.4,313.21z" style="fill: inherit;"/></g><g id="__id8_sk0b0qmdxd"><path d="M216.49,317.51c2.28,0.01,4.13-1.83,4.14-4.11l0,0c0.01-2.28-1.83-4.13-4.11-4.14l0,0c-2.28-0.01-4.13,1.83-4.14,4.11l0,0 C212.37,315.65,214.21,317.5,216.49,317.51L216.49,317.51z" style="fill: inherit;"/></g><g id="__id9_sk0b0qmdxd"><path d="M220.63 311.27H801.01V315.75H220.63z" style="fill: inherit;"/></g><g id="__id10_sk0b0qmdxd"><path d="M498.35,328.47l-264.49,3.2l264.49,3.2c1.77,0.02,3.22-1.39,3.24-3.16c0.02-1.77-1.39-3.22-3.16-3.24H498.35z" style="fill: inherit;"/><path d="M375.9,331.67h1.93c0,2.08,1.68,3.76,3.76,3.76c2.08,0,3.76-1.68,3.76-3.76c0-2.08-1.68-3.76-3.76-3.76 c-2.08,0-3.76,1.68-3.76,3.76H375.9h-1.93c0-4.21,3.41-7.62,7.62-7.62c4.21,0,7.62,3.41,7.62,7.62c0,4.21-3.41,7.62-7.62,7.62 c-4.21,0-7.62-3.41-7.62-7.62H375.9z" style="fill: inherit;"/></g><g id="__id11_sk0b0qmdxd"><path d="M721.85,424.08c-0.09,0.1-0.18,0.2-0.27,0.3c0.21-0.08,0.41-0.16,0.6-0.24C722.08,424.12,721.96,424.11,721.85,424.08z" style="fill: inherit;"/><path d="M797.36,470.01c-0.92-1.19-1.76-2.36-2.74-3.32c-3.84-3.92-7.78-5.89-10.51-6.92c-2.78-0.98-4.4-1.22-4.49-0.98 c-0.11,0.25,1.27,1.14,3.55,2.73c2.24,1.63,5.34,4.2,7.89,8.04c0.66,0.94,1.16,2.04,1.73,3.11c0.44,1.15,0.99,2.29,1.28,3.57 c0.73,2.49,1.08,5.25,0.95,8.15c-0.14,5.78-2.08,12.02-5.25,17.78c-3.18,5.76-7.62,11.06-12.67,15.11 c-5.05,4.03-10.71,6.81-15.92,7.65c-2.61,0.47-5.04,0.54-7.34,0.19c-2.3-0.31-4.46-0.87-6.26-1.7c-3.74-1.52-5.87-3.73-6.9-5.19 c-1.06-1.51-1.49-2.84-1.56-4.49c0.01-0.21,0-0.42-0.01-0.63l-0.03-0.32l0.07-0.35c0.09-0.46,0.16-0.93,0.2-1.4 c0.17-0.5,0.34-1,0.48-1.51c0.07-0.24,0.14-0.54,0.21-0.74c0.07-0.18,0.14-0.36,0.2-0.54c0.6-1.41,1.65-2.76,2.96-3.84 c1.29-1.08,2.84-1.83,3.91-2.22c0.27-0.1,0.49-0.18,0.65-0.26c0.06-0.03,0.18-0.09,0.19-0.12c0.06-0.1,0.03,0.07,0.21-0.41 c0.13-0.28,0.26-0.51,0.38-0.71c0.07,0.32,0.12,0.67,0.13,1.05c-0.04,2.28-0.27,4.24,0.73,5.01c0.91,0.73,2.86,0.58,5.43-1.81 c0.63-0.64,1.28-1.47,1.86-2.67c0.51-1.24,1.05-2.97,0.51-5.29c-0.27-1.12-0.85-2.32-1.64-3.27c-0.4-0.51-0.83-0.94-1.28-1.31 c-0.47-0.41-0.93-0.71-1.41-1c-1.93-1.14-3.85-1.61-5.71-1.83c-3.71-0.38-7.39,0.25-11.04,1.84c-3.61,1.61-7.25,4.33-9.96,8.33 l-0.95,1.55c-0.29,0.52-0.49,0.98-0.74,1.48c-0.47,0.99-0.93,2-1.37,3.04c-0.34,1.13-0.67,2.29-0.97,3.48l-0.22,0.89l-0.11,0.96 l-0.18,1.94c-0.39,5.22,1.26,11.09,4.49,15.49c3.15,4.48,8.61,8.79,15.43,11.01c3.39,1.21,7.14,1.89,11.1,2.05 c3.96,0.21,8.2-0.34,12.2-1.5c4.25-1.19,8.26-3.1,11.96-5.49c-3.88,34.37,19.95,73.28,24.17,79.84v-38.36 c-0.16,0.3-0.27,0.56-0.43,0.87c0,0-21.37-34.56,0.43-45.91v-53.64c-0.39-1.16-0.78-2.3-1.33-3.35 C799.05,472.59,798.15,471.28,797.36,470.01z" style="fill: inherit;"/><path d="M799.83,312.64c-4.21,6.99-22.9,40.43-22.83,40.62c9.67,23.29,11.78,50.54,12.07,54.43c0.02,0.25,0.16,0.43,0.33,0.43 l9.05,10.24c0.67,0.76,1.62,1.05,2.55,0.96V312.32C800.59,312.12,800.13,312.14,799.83,312.64z" style="fill: inherit;"/><path d="M801.01,461.16v-38.31l-14.84,14.09C788.82,440.5,800.84,460.87,801.01,461.16z" style="fill: inherit;"/><path d="M727.8,368.66c2.66,1.38,5.21,3.03,7.51,4.75c1.12,0.88,2.21,1.76,3.22,2.61c0.97,0.89,1.94,1.71,2.79,2.52 c1.59,1.53,2.99,2.87,4.11,3.96c1.04,0.95,1.77,1.44,2.08,1.3c0.34-0.16,0.44-1.03,0.31-2.49c-0.08-0.73-0.17-1.62-0.39-2.62 c-0.23-0.99-0.52-2.11-0.87-3.35c-0.37-1.22-0.88-2.52-1.41-3.94c-0.59-1.39-1.27-2.85-2.05-4.37c-1.61-3-3.71-6.17-6.32-9.23 c-2.65-3.01-5.83-5.88-9.44-8.25c-3.6-2.38-7.61-4.25-11.7-5.42c-4.08-1.18-8.22-1.63-11.94-1.44c-3.72,0.2-7,0.88-9.41,1.87 c-4.84,1.82-9.13,5.11-11.85,9.03c-2.76,3.9-3.96,8.15-3.93,11.56c0.03,3.43,1.03,6.02,2.36,7.62c1.37,1.62,2.92,2.31,4.57,2.28 c3.34-0.07,6.21-2.81,9.1-4.52c1.42-0.89,2.82-1.49,4.1-2.02c1.29-0.53,2.59-1.02,4.21-1.64c0.2-0.07,0.42-0.17,0.65-0.28 c0.25-0.08,0.52-0.17,0.8-0.29c0.27-0.13,0.59-0.22,0.92-0.33c0.34-0.1,0.67-0.26,1.06-0.34c1.51-0.45,3.46-0.82,5.74-0.87 c2.28-0.06,4.87,0.19,7.58,0.84C722.31,366.28,725.1,367.32,727.8,368.66z" style="fill: inherit;"/><path d="M616.86,395.63c0.71-0.91,0.91-1.82,0.71-2.69c-0.41-1.77-2.19-3-3.42-4.36c-0.63-0.66-1.11-1.34-1.53-1.96 c-0.43-0.63-0.83-1.27-1.34-2.07c-0.06-0.1-0.14-0.21-0.22-0.32c-0.07-0.13-0.15-0.26-0.24-0.39c-0.1-0.13-0.18-0.29-0.28-0.46 c-0.09-0.17-0.22-0.33-0.3-0.53c-0.41-0.76-0.82-1.76-1.1-2.97c-0.29-1.21-0.44-2.62-0.4-4.14c0.04-1.52,0.29-3.12,0.7-4.71 c0.44-1.57,1.04-3.12,1.7-4.54c0.35-0.7,0.69-1.37,1.04-2.01c0.37-0.62,0.7-1.22,1.03-1.77c0.64-1.02,1.2-1.91,1.66-2.64 c0.39-0.66,0.57-1.11,0.47-1.25c-0.12-0.17-0.6-0.12-1.36,0.11c-0.38,0.12-0.85,0.27-1.35,0.5c-0.5,0.23-1.07,0.51-1.69,0.83 c-0.61,0.33-1.25,0.75-1.95,1.19c-0.67,0.47-1.38,1-2.1,1.58c-1.42,1.2-2.88,2.67-4.22,4.4c-1.31,1.75-2.49,3.77-3.35,5.96 c-0.87,2.19-1.42,4.54-1.59,6.85c-0.18,2.31,0.04,4.57,0.56,6.54c0.52,1.96,1.25,3.64,2.05,4.81c1.51,2.38,3.74,4.31,6.14,5.32 c2.39,1.04,4.79,1.21,6.61,0.81C614.88,397.34,616.15,396.52,616.86,395.63z" style="fill: inherit;"/><path d="M595.94,326.71c-23.87,3.92-49.36,6.24-73.12-2.34c-2.67-0.96-5.64-0.62-6.42,1.18c-1.86,1.08-1.86,4.08-0.34,6.44 c11.5,17.84,34.56,27.15,55.79,29.51c21.92,2.44,39.8-10.52,55.82-22.24c-2.78,9.49-3.9,19.32,1.79,28.72 c2.48,4.1,12.01,13.52,8.95-1.84c-3.21-16.08,15.33-28.01,29.66-34.9c17.08-8.21,39-6.27,57.54-1.19 c0.53,0.15,1.02,0.19,1.49,0.19c1.71,0.79,3.42,1.63,5.09,2.55c32.07,17.73,42.86,51.7,35.62,82.2 c-5.64,23.77-22.12,53.5-51.09,57.48c-12.75,1.75-26.64-3.61-35.14-12.46c-2.67-2.78-3.75-5.3-4.9-7.71 c-3.13-6.57-0.42-16.86,4.46-23.55c7.61,7.41,21.11,10.35,31.94,10.08c14.43-0.36,28.61-10.62,26.57-22.8 c0.06-0.82-2.7-6.99-3.4-8.4c-10.45-21.06-51.57-15.99-68.24,5.96c-18.61,24.5-1.36,52.93,27.12,64.46 c26.92,10.89,51.52-5.44,65.51-24.39c15.62-21.14,23.33-50.12,17.41-76.23c-4.65-20.48-21.88-40.7-41.08-52.01 c-19.59-11.54-43.6-12.97-65.44-11.1C645.9,316.52,621.13,322.57,595.94,326.71z M721.85,424.08c0.11,0.02,0.22,0.03,0.33,0.05 c-0.19,0.08-0.4,0.16-0.6,0.24C721.68,424.28,721.77,424.18,721.85,424.08z" style="fill: inherit;"/></g></g></svg>