<?xml version="1.0" standalone="no"?>
<!DOCTYPE svg PUBLIC "-//W3C//DTD SVG 20010904//EN"
 "http://www.w3.org/TR/2001/REC-SVG-20010904/DTD/svg10.dtd">
<svg version="1.0" xmlns="http://www.w3.org/2000/svg"
 width="68.000000pt" height="70.000000pt" viewBox="0 0 68.000000 70.000000"
 preserveAspectRatio="xMidYMid meet">
<metadata>
Created by potrace 1.10, written by Peter Selinger 2001-2011
</metadata>
<g transform="translate(0.000000,70.000000) scale(0.100000,-0.100000)"
fill="#000000" stroke="none">
<path d="M107 545 c-26 -52 -47 -100 -47 -105 0 -10 572 -15 582 -5 3 3 -18
49 -46 103 l-51 97 -195 3 -195 2 -48 -95z"/>
<path d="M104 397 c-2 -7 -3 -85 -2 -172 l3 -160 103 -3 102 -3 0 76 0 75 40
0 40 0 0 -75 0 -75 100 0 100 0 0 175 0 175 -240 0 c-187 0 -242 -3 -246 -13z
m156 -92 l0 -45 -40 0 -40 0 0 45 0 45 40 0 40 0 0 -45z m130 0 l0 -45 -40 0
-40 0 0 45 0 45 40 0 40 0 0 -45z m130 0 l0 -45 -40 0 -40 0 0 45 0 45 40 0
40 0 0 -45z m-260 -129 c0 -32 -2 -34 -40 -38 l-40 -4 0 38 c0 38 0 38 40 38
39 0 40 -1 40 -34z m258 -2 c-3 -34 -5 -37 -40 -39 -38 -2 -38 -2 -38 37 0 38
0 38 41 38 40 0 40 0 37 -36z"/>
</g>
</svg>
