 <svg  version="1.0" xmlns="http://www.w3.org/2000/svg"  width="300.000000pt" height="300.000000pt" viewBox="0 0 300.000000 300.000000"  preserveAspectRatio="xMidYMid meet">  <g transform="translate(0.000000,300.000000) scale(0.100000,-0.100000)" fill="#ffffff" stroke="none"> <path d="M1308 2981 c-444 -97 -733 -437 -768 -901 -15 -202 18 -394 95 -558 19 -40 162 -256 317 -480 155 -224 312 -450 348 -502 165 -241 185 -269 192 -267 4 1 123 169 264 372 622 900 593 854 639 998 102 317 56 667 -123 947 -81 127 -245 262 -398 329 -171 74 -398 99 -566 62z m407 -110 c412 -122 652 -476 632 -931 -10 -224 -60 -355 -225 -592 -183 -263 -528 -762 -578 -835 -38 -56 -51 -70 -61 -60 -6 7 -112 157 -235 334 -544 785 -515 741 -562 871 -131 367 -19 819 259 1045 113 92 264 161 409 187 83 15 281 4 361 -19z"/> <path d="M1417 2390 c-99 -25 -191 -103 -235 -198 -22 -48 -27 -71 -27 -142 0 -104 29 -174 100 -245 71 -71 141 -100 245 -100 104 0 174 29 245 100 71 71 100 141 100 245 0 71 -5 94 -27 142 -33 72 -103 142 -173 174 -61 28 -167 39 -228 24z m164 -105 c174 -62 225 -280 94 -410 -99 -99 -254 -98 -351 2 -182 187 11 494 257 408z"/> <path d="M760 830 c-526 -90 -835 -284 -742 -467 87 -169 450 -292 1017 -345 183 -17 747 -17 930 0 567 53 930 176 1017 345 95 187 -239 390 -780 473 -108 16 -113 16 -132 -1 -49 -45 -13 -79 100 -94 207 -29 450 -99 575 -164 79 -42 155 -115 155 -149 0 -93 -241 -200 -590 -263 -274 -49 -418 -59 -810 -59 -285 0 -399 3 -520 17 -332 38 -579 96 -736 172 -98 47 -144 90 -144 133 0 34 76 107 155 149 125 65 368 135 575 164 112 15 149 49 102 92 -22 20 -38 20 -172 -3z"/> </g> </svg> 