 <svg  version="1.0" xmlns="http://www.w3.org/2000/svg"  width="300.000000pt" height="300.000000pt" viewBox="0 0 300.000000 300.000000"  preserveAspectRatio="xMidYMid meet">  <g transform="translate(0.000000,300.000000) scale(0.100000,-0.100000)" fill="#ffffff" stroke="none"> <path d="M1305 2799 c-563 -87 -1002 -522 -1101 -1089 -24 -140 -15 -379 20 -518 122 -485 485 -847 973 -969 99 -25 125 -27 303 -28 180 0 203 2 303 27 491 125 850 484 975 975 25 99 27 124 27 303 0 179 -2 204 -27 303 -85 333 -276 605 -558 792 -121 81 -250 138 -400 177 -102 27 -134 31 -285 34 -93 1 -197 -1 -230 -7z m135 -199 l0 -90 60 0 60 0 0 90 c0 105 -10 100 136 75 503 -87 892 -476 979 -979 25 -146 30 -136 -75 -136 l-90 0 0 -60 0 -60 90 0 c105 0 100 10 75 -136 -43 -249 -155 -465 -335 -644 -179 -180 -395 -292 -644 -335 -146 -25 -136 -30 -136 75 l0 90 -60 0 -60 0 0 -90 c0 -105 10 -100 -136 -75 -248 43 -466 156 -644 335 -180 179 -292 395 -335 644 -25 146 -30 136 75 136 l90 0 0 60 0 60 -90 0 c-105 0 -100 -10 -75 136 43 249 155 465 335 644 138 139 292 234 475 293 82 27 215 55 273 56 l32 1 0 -90z"/> <path d="M1439 2008 l0 -333 -41 -30 c-103 -76 -105 -208 -4 -289 29 -24 48 -31 94 -33 70 -5 114 16 157 75 l30 41 228 0 227 1 0 60 0 60 -227 0 -228 0 -23 35 c-12 19 -38 45 -57 57 l-35 23 0 333 0 332 -60 0 -60 0 -1 -332z m101 -468 c11 -11 20 -29 20 -40 0 -11 -9 -29 -20 -40 -11 -11 -29 -20 -40 -20 -26 0 -60 34 -60 62 0 52 62 76 100 38z"/> </g> </svg> 