<?xml version="1.0" standalone="no"?>
<!DOCTYPE svg PUBLIC "-//W3C//DTD SVG 20010904//EN"
 "http://www.w3.org/TR/2001/REC-SVG-20010904/DTD/svg10.dtd">
<svg version="1.0" xmlns="http://www.w3.org/2000/svg"
 width="72.000000pt" height="71.000000pt" viewBox="0 0 72.000000 71.000000"
 preserveAspectRatio="xMidYMid meet">
<metadata>
Created by potrace 1.10, written by Peter Selinger 2001-2011
</metadata>
<g transform="translate(0.000000,71.000000) scale(0.100000,-0.100000)"
fill="#000000" stroke="none">
<path d="M352 678 c-24 -24 -11 -78 20 -78 16 0 19 6 16 42 -3 44 -16 56 -36
36z"/>
<path d="M260 579 c-14 -6 -40 -24 -58 -42 -31 -30 -32 -30 -30 -8 4 32 -26
51 -48 30 -14 -15 -13 -18 10 -37 l26 -20 -22 -37 c-12 -21 -24 -54 -27 -74
-6 -35 -8 -36 -44 -33 -34 3 -37 2 -37 -23 0 -25 3 -26 37 -23 36 3 37 1 45
-36 8 -39 37 -96 49 -96 4 0 12 7 19 15 11 13 9 23 -10 57 -29 52 -29 107 -1
172 l22 50 54 -54 c30 -30 52 -56 50 -59 -3 -3 -28 -4 -55 -2 -71 4 -93 -5
-79 -30 9 -17 19 -20 70 -18 32 1 61 0 64 -3 3 -2 -38 -48 -91 -100 -88 -87
-106 -118 -71 -118 7 0 52 41 101 90 50 50 96 90 103 90 10 0 13 -20 13 -75
l0 -75 -27 6 c-16 4 -40 13 -55 20 -29 15 -58 9 -58 -11 0 -17 79 -55 114 -55
24 0 27 -4 26 -27 -3 -46 -1 -53 20 -53 17 0 20 7 20 39 0 37 1 39 40 45 26 4
55 19 82 44 28 24 39 31 35 18 -9 -23 18 -56 45 -56 27 0 22 35 -8 57 l-26 19
26 39 c15 21 29 55 32 74 6 35 7 37 41 33 37 -5 56 10 46 36 -4 10 -16 13 -44
9 -37 -5 -39 -4 -39 21 0 32 -35 112 -48 112 -5 0 -15 -6 -21 -14 -10 -11 -9
-21 2 -43 8 -15 17 -39 20 -53 6 -25 6 -25 -68 -25 -41 0 -74 3 -72 7 1 4 41
48 90 97 48 50 87 97 87 105 0 35 -31 16 -120 -72 l-95 -95 -3 73 c-2 40 0 75
3 78 3 3 26 -4 51 -16 36 -18 49 -20 60 -11 23 19 17 29 -28 49 -47 22 -173
27 -218 9z m90 -99 c0 -61 -2 -70 -18 -70 -10 0 -36 18 -57 40 -28 29 -44 38
-58 34 -39 -12 -5 18 47 42 82 38 86 36 86 -46z m53 -111 c16 -26 0 -68 -29
-75 -27 -7 -64 18 -64 44 0 44 70 68 93 31z m163 -87 c-9 -61 -89 -141 -156
-157 l-25 -6 2 78 c1 43 2 79 3 81 0 2 21 -19 48 -47 42 -45 49 -49 65 -37 16
12 14 17 -32 63 -28 28 -48 52 -46 54 2 2 36 4 75 4 l72 0 -6 -33z"/>
</g>
</svg>
